<svg xmlns="http://www.w3.org/2000/svg" viewBox="0 0 300 400">
  <defs><linearGradient id="tile" x1="0" x2="0" y1="0" y2="1"><stop stop-color="#fffdf2"/><stop offset=".72" stop-color="#eee2c5"/><stop offset="1" stop-color="#c5b17e"/></linearGradient></defs>
  <rect x="18" y="12" width="264" height="376" rx="26" fill="url(#tile)" stroke="#8d7a46" stroke-width="8"/>
  <rect x="38" y="32" width="224" height="336" rx="18" fill="none" stroke="#ffffff" stroke-width="5" opacity=".6"/>
  <text x="150" y="128" text-anchor="middle" font-family="Microsoft JhengHei, serif" font-size="86" font-weight="900" fill="#1d783f">秋</text>
  <path d="M94 184 C122 154 151 164 155 202 C120 208 100 202 94 184 Z M206 184 C178 154 149 164 145 202 C180 208 200 202 206 184 Z M150 205 C136 230 142 255 169 270" fill="none" stroke="#b65f2a" stroke-width="10" stroke-linecap="round"/>
  <path d="M150 205 C132 218 110 224 88 222 M151 205 C171 218 192 224 214 221" stroke="#2f9b55" stroke-width="7" stroke-linecap="round"/>
  <text x="150" y="326" text-anchor="middle" font-family="Microsoft JhengHei, serif" font-size="58" font-weight="900" fill="#b73732">三</text>
</svg>
